<svg width="18182" height="18456" viewBox="0 0 18182 18456" fill="none" xmlns="http://www.w3.org/2000/svg">
<rect width="18182" height="18456" rx="20" fill="#883E3E"/>
<path d="M8488.73 15191.8C8472.62 15171.4 8453.7 15152.5 8440.8 15130.3C7508.21 13522 6575.78 11913.7 5645.59 10304.1C5618.98 10258.1 5604.54 10198.4 5604.5 10145.1C5602.54 7491.5 5602.99 4837.88 5601.58 2184.26C5601.54 2116.9 5618.17 2070.81 5672.94 2024.98C6144.1 1630.8 6611.37 1232.09 7082.27 837.615C7117.4 808.194 7171.58 786.37 7217.11 786.004C7664.01 782.412 8110.95 784.124 8567.61 789.727C8580.17 800.147 8584.13 804.045 8589.22 806.817C8584.21 1639.5 8579.37 2472.19 8574.15 3304.87C8566.64 4501.83 8558.74 5698.79 8551.21 6895.75C8545 7883.12 8539.24 8870.49 8532.99 9857.86C8527.17 10777.2 8521.21 11696.5 8514.85 12615.8C8508.94 13469.2 8502.43 14322.6 8493.7 15183.3C8491.23 15190.7 8488.73 15191.8 8488.73 15191.8Z" fill="#2563EB"/>
<path d="M12603.5 8242.49C12603.5 8881.41 12604.5 9511.38 12601.7 10141.3C12601.4 10194.8 12586.3 10254.3 12559.6 10300.6C11631 11907.6 10700.3 13513.3 9769.73 15119.1C9756.94 15141.2 9743.37 15162.8 9713.37 15181C9682.33 10381.3 9651.29 5581.58 9620.21 775.763C9654.63 773.705 9680.81 770.795 9706.98 770.777C10135.9 770.494 10564.8 769.445 10993.7 772.411C11034.4 772.692 11083.5 788.543 11114.1 814.211C11597 1219.47 12078.3 1626.62 12556.6 2037.08C12586.2 2062.45 12601.5 2118.81 12601.6 2160.8C12604 3286.37 12603.5 4411.94 12603.5 5537.52C12603.5 6436.19 12603.5 7334.86 12603.5 8242.49Z" fill="#2563EB"/>
<path d="M3665.71 7181.73C5436.55 10261 7204.19 13334.5 8970.48 16408.7C8993.14 16448.2 9009.89 16497.1 9010.36 16541.8C9013.72 16864.2 9012.16 17186.7 9012.16 17509.2C9012.16 17528.8 9012.16 17548.3 9012.16 17585.5C8845.65 17428.1 8693.43 17285 8542.11 17141C8113.6 16733.2 7685.55 16324.9 7257.15 15916.9C6435.71 15134.7 5614.17 14352.6 4792.65 13570.4C3808.28 12633.2 2823.81 11696.1 1839.57 10758.8C1550.89 10483.9 1261.92 10209.2 976.039 9931.49C948.196 9904.44 926.765 9856.42 926.684 9818.08C924.124 8611.8 924.034 7405.51 926.983 6199.24C927.081 6159.06 952.397 6107.7 983.128 6080.53C1423.75 5690.87 1868.07 5305.31 2309.36 4916.39C2375 4858.54 2384.1 4919.38 2402.8 4952.17C2601.26 5300.12 2798.05 5649.01 2995.35 5997.61C3217.68 6390.42 3440.05 6783.21 3665.71 7181.73Z" fill="#2563EB"/>
<path d="M9197.26 17558.1C9196.08 17208.8 9193.5 16859.5 9195.71 16510.2C9195.95 16472 9219.17 16431.3 9239.51 16396.2C10403.2 14385.8 11573.2 12378.9 12730.5 10365C13595.8 8859.13 14444.9 7344.19 15301.1 5833.25C15472.1 5531.58 15642.6 5229.68 15813.6 4928.03C15823.8 4910.02 15836.4 4893.33 15852.3 4869.36C16033.8 5026.27 16213.1 5180.15 16391.1 5335.43C16668.9 5577.77 16947.2 5819.65 17221.5 6065.83C17254.1 6095.12 17280.5 6150.04 17280.7 6193.15C17283.8 7396.65 17283.7 8600.16 17281 9803.66C17280.9 9845.19 17258.8 9897.67 17228.8 9926.51C16665.5 10467.3 16099.5 11005.3 15534 11543.8C15208.5 11853.8 14882.7 12163.5 14557.3 12473.6C13922.6 13078.2 13288.2 13683 12653.6 14287.6C11988.9 14920.8 11324.2 15554.1 10659.3 16187.1C10314.1 16515.6 9968.29 16843.4 9622.94 17171.8C9488.35 17299.7 9354.22 17428.2 9211.38 17556.9C9202.87 17557.4 9197.26 17558.1 9197.26 17558.1Z" fill="#2563EB"/>
<path d="M12786.7 9869.96C12786.1 9834.14 12785.1 9798.32 12785.1 9762.5C12785 7272.04 12785 4781.57 12785 2291.11C12785 2240.74 12785 2190.38 12785 2130.35C12825.6 2128.19 12857.3 2125.06 12889.1 2125.04C13287.9 2124.7 13686.7 2122.98 14085.4 2127.18C14134.2 2127.7 14192.3 2149.23 14229.9 2180.21C14714 2578.49 15195.8 2979.49 15675.5 3382.94C15706.6 3409.03 15731.7 3460.61 15732.2 3500.63C15736.4 3879.83 15735.4 4259.1 15733.5 4638.33C15733.4 4675.24 15725.1 4716.51 15707.2 4748.31C14748 6444.67 13787.4 8140.23 12826.9 9835.82C12821 9846.18 12813.9 9855.85 12799.6 9867.39C12791.8 9868.92 12786.7 9869.96 12786.7 9869.96Z" fill="#2563EB"/>
<path d="M5418.06 2150.34C5419.15 2180.13 5421.19 2209.92 5421.19 2239.71C5421.33 4757.17 5421.32 7274.64 5421.32 9792.1C5421.32 9820.7 5421.32 9849.29 5421.32 9877.89C5415.9 9879.35 5410.49 9880.81 5405.07 9882.27C5289.24 9678.65 5173.08 9475.22 5057.63 9271.39C4214.8 7783.41 3371.58 6295.65 2531.36 4806.23C2498.08 4747.25 2479.29 4672.52 2478.33 4604.79C2473.21 4243.51 2477.1 3882.12 2474.73 3520.8C2474.34 3461.88 2491.82 3423.15 2538.59 3384.58C3015.78 2990.99 3491.35 2595.47 3965.44 2198.25C4019.22 2153.2 4071.68 2131.55 4143.42 2132.12C4557.29 2135.41 4971.21 2133.94 5395.45 2138.26C5409.16 2146.16 5413.25 2148.8 5418.06 2150.34Z" fill="#2563EB"/>
<path d="M17475.1 9245.92C17475.1 9466.91 17477.2 9678.97 17473 9890.93C17472.3 9927.08 17454.4 9971.94 17428.7 9997.18C17170.3 10251.1 16909 10502.1 16647.7 10753.1C16488.3 10906.4 16327.4 11058.2 16167.2 11210.7C16000.5 11369.5 15833.9 11528.3 15667.1 11687C15506.9 11839.5 15346.5 11991.8 15186.4 12144.4C15015.3 12307.2 14844.4 12470.3 14673.4 12633.2C14513.2 12785.8 14353 12938.3 14192.8 13090.8C14026.1 13249.5 13859.4 13408.2 13692.6 13566.9C13534.6 13717.3 13376.4 13867.6 13218.3 14018.1C13049.5 14178.9 12880.7 14339.8 12711.9 14500.7C12549.5 14655.3 12387 14809.7 12224.6 14964.3C11891.3 15281.8 11558 15599.5 11224.6 15917C11068.8 16065.4 10912.5 16213.3 10756.6 16361.6C10423.2 16679.1 10089.9 16996.7 9756.66 17314.4C9565.65 17496.5 9375.76 17679.8 9183.64 17860.8C9140.51 17901.4 9093.14 17925.1 9038.16 17867.7C8989.24 17816.7 8930.15 17775.3 8878.99 17726.2C8611.17 17468.9 8344.85 17210.1 8077.2 16952.7C7913.47 16795.2 7748.29 16639.2 7583.74 16482.6C7423.53 16330 7263.27 16177.6 7103.07 16025.1C6936.35 15866.4 6769.71 15707.6 6602.98 15548.8C6440.6 15394.3 6278.09 15239.8 6115.76 15085.2C5782.39 14767.7 5449.17 14450 5115.74 14132.5C4962.07 13986.2 4807.83 13840.5 4654.22 13694.1C4312.21 13368.2 3970.52 13042 3628.51 12716.2C3474.89 12569.8 3320.61 12424.1 3166.95 12277.8C2831.37 11958.3 2496.03 11638.4 2160.51 11318.8C1998.18 11164.2 1835.81 11009.6 1673.21 10855.2C1380.71 10577.6 1086.96 10301.2 797.031 10020.9C767.533 9992.41 745.469 9941.12 745.383 9900.35C742.697 8640.13 743.504 7379.9 742.202 6119.68C742.14 6059.8 760.372 6021.23 807.859 5980.37C1048.38 5773.39 1282.49 5559.14 1521.53 5350.44C1746.37 5154.15 1974.39 4961.42 2201.36 4767.52C2255.01 4721.68 2287.79 4674.38 2286.62 4594.76C2280.91 4206.62 2282.74 3818.34 2286.04 3430.14C2286.37 3391.29 2303.66 3340.21 2331.77 3315.97C2503.34 3168 2680.92 3026.85 2855.29 2882.02C2987.09 2772.55 3116.61 2660.41 3248.01 2550.46C3480.9 2355.59 3713.78 2160.7 3948.92 1968.52C3968.12 1952.83 4004.54 1953.72 4032.97 1953.67C4471.04 1952.81 4909.14 1950.5 5347.15 1955.4C5427.29 1956.29 5491.33 1937.04 5548.68 1888.21C5733.27 1731.07 5915.79 1571.54 6101.02 1415.16C6333.08 1219.24 6567.17 1025.67 6800.12 830.775C6883.85 760.721 6965.25 687.829 7051.13 620.488C7073.9 602.637 7109.31 592.556 7138.96 592.458C7643.49 590.793 8148.03 591.046 8652.57 591.459C8746.92 591.537 8773.56 617.619 8773.61 710.323C8773.97 1441.97 8776.12 2173.63 8773.23 2905.27C8769.6 3823.62 8761.67 4741.95 8755.7 5660.29C8749.59 6599.53 8743.65 7538.78 8737.54 8478.02C8731.57 9396.37 8725.43 10314.7 8719.44 11233C8713.35 12166.3 8708.32 13099.6 8700.88 14032.9C8697.27 14485.4 8692.55 14937.9 8680.63 15390.2C8677.94 15492.5 8706.59 15577.5 8755.77 15661.2C8868.17 15852.4 8980.78 16043.5 9100.94 16247.7C9137.6 16189.6 9170.9 16140.7 9200.41 16089.5C9302.9 15912 9406.89 15735.2 9503.73 15554.7C9527.13 15511 9532.76 15454.2 9533.26 15403.4C9534.01 15327.3 9517.86 15251.2 9517.74 15175C9516.48 14359.8 9519.29 13544.5 9516.34 12729.2C9512.93 11784 9504.92 10838.8 9498.81 9893.57C9492.84 8969.26 9486.72 8044.94 9480.7 7120.63C9474.63 6187.36 9468.64 5254.09 9462.56 4320.81C9456.55 3396.5 9451.44 2472.18 9443.86 1547.88C9441.59 1271.57 9432.57 995.306 9426.2 719.032C9423.94 620.514 9454.32 588.122 9554.56 589.083C10053 593.861 10551.5 592.525 11050 589.898C11124.4 589.506 11176.5 614.045 11232.1 662.088C11459.6 858.667 11693.2 1048.23 11923.2 1241.99C12068 1363.95 12209.8 1489.37 12353.9 1612.15C12475 1715.42 12596.4 1818.55 12720.7 1918.06C12740.3 1933.76 12776 1934.42 12804.2 1934.48C13239.2 1935.44 13674.4 1938.87 14109.3 1932.25C14205.1 1930.79 14275.5 1964.44 14341.2 2019.12C14552.2 2194.82 14759.5 2374.85 14970.9 2550.11C15211 2749.23 15454.2 2944.72 15695.6 3142.46C15748.2 3185.61 15797.1 3233.41 15850.4 3275.71C15901.2 3316.01 15918.5 3362.95 15917.9 3428.87C15914.3 3820.04 15915 4211.28 15918 4602.46C15918.2 4638.75 15934.7 4685.98 15960.8 4709.22C16137.4 4866.22 16319.2 5017.5 16498.2 5171.9C16610.4 5268.68 16720.2 5368.18 16831.9 5465.51C17028.2 5636.51 17227.5 5804.27 17419.6 5979.73C17453 6010.29 17472.6 6071.98 17472.8 6119.38C17475.9 7012.28 17475.1 7905.19 17475.1 8798.1C17475.1 8944.39 17475.1 9090.67 17475.1 9245.92ZM5385.11 2134.09C4971.21 2133.94 4557.29 2135.41 4143.42 2132.12C4071.68 2131.55 4019.22 2153.2 3965.44 2198.26C3491.35 2595.47 3015.78 2990.99 2538.59 3384.58C2491.82 3423.15 2474.34 3461.88 2474.73 3520.8C2477.1 3882.12 2473.21 4243.51 2478.33 4604.79C2479.29 4672.52 2498.08 4747.25 2531.36 4806.23C3371.58 6295.65 4214.8 7783.41 5057.63 9271.4C5173.08 9475.22 5289.24 9678.65 5405.07 9882.27C5410.48 9880.81 5415.9 9879.35 5421.32 9877.89C5421.32 9849.29 5421.32 9820.7 5421.32 9792.1C5421.32 7274.64 5421.33 4757.17 5421.19 2239.71C5421.19 2209.92 5419.15 2180.13 5418.53 2140.96C5413.01 2139.37 5407.49 2137.77 5385.11 2134.09ZM12783.8 9878.48C12788 9876.15 12792.2 9873.82 12807.4 9865.85C12813.9 9855.85 12821 9846.18 12826.9 9835.82C13787.4 8140.23 14748 6444.67 15707.2 4748.31C15725.1 4716.51 15733.4 4675.24 15733.5 4638.33C15735.4 4259.1 15736.4 3879.83 15732.2 3500.63C15731.7 3460.61 15706.6 3409.03 15675.5 3382.94C15195.8 2979.49 14714 2578.49 14229.9 2180.21C14192.3 2149.24 14134.2 2127.7 14085.4 2127.19C13686.7 2122.98 13287.9 2124.7 12889.1 2125.04C12857.3 2125.06 12825.6 2128.19 12785 2130.35C12785 2190.38 12785 2240.74 12785 2291.11C12785 4781.58 12785 7272.04 12785.1 9762.51C12785.1 9798.32 12786.1 9834.14 12783.8 9878.48ZM9195.54 17565.1C9199.73 17563.3 9203.91 17561.4 9219.88 17556.4C9354.22 17428.2 9488.35 17299.7 9622.94 17171.8C9968.29 16843.4 10314.1 16515.6 10659.3 16187.1C11324.2 15554.1 11988.9 14920.8 12653.6 14287.6C13288.2 13683 13922.6 13078.2 14557.3 12473.6C14882.7 12163.5 15208.5 11853.8 15534 11543.8C16099.5 11005.3 16665.5 10467.3 17228.8 9926.51C17258.8 9897.67 17280.9 9845.2 17281 9803.67C17283.7 8600.16 17283.8 7396.65 17280.7 6193.15C17280.5 6150.04 17254.1 6095.12 17221.5 6065.83C16947.2 5819.65 16668.9 5577.77 16391.1 5335.43C16213.1 5180.15 16033.8 5026.27 15852.3 4869.36C15836.4 4893.33 15823.8 4910.02 15813.6 4928.03C15642.6 5229.68 15472.1 5531.58 15301.1 5833.26C14444.9 7344.19 13595.8 8859.13 12730.5 10365C11573.2 12378.9 10403.2 14385.8 9239.51 16396.2C9219.17 16431.3 9195.95 16472 9195.71 16510.2C9193.5 16859.5 9196.08 17208.8 9195.54 17565.1ZM8590.71 796.721C8585.38 793.532 8580.05 790.343 8557.88 784.33C8110.95 784.124 7664.01 782.412 7217.12 786.004C7171.58 786.37 7117.4 808.195 7082.27 837.615C6611.37 1232.09 6144.1 1630.8 5672.94 2024.98C5618.17 2070.81 5601.54 2116.9 5601.58 2184.26C5602.99 4837.88 5602.54 7491.5 5604.5 10145.1C5604.54 10198.4 5618.98 10258.1 5645.59 10304.1C6575.78 11913.7 7508.21 13522 8440.8 15130.3C8453.7 15152.5 8472.62 15171.4 8486.82 15199.3C8489.06 15196.9 8491.3 15194.5 8496.18 15175.9C8502.43 14322.6 8508.94 13469.2 8514.85 12615.8C8521.21 11696.5 8527.17 10777.2 8532.99 9857.86C8539.24 8870.49 8545 7883.12 8551.21 6895.75C8558.74 5698.79 8566.64 4501.83 8574.15 3304.87C8579.37 2472.19 8584.21 1639.5 8590.71 796.721ZM12603.5 8233.53C12603.5 7334.86 12603.5 6436.19 12603.5 5537.52C12603.5 4411.94 12604 3286.37 12601.6 2160.8C12601.5 2118.81 12586.2 2062.45 12556.6 2037.08C12078.3 1626.62 11597 1219.47 11114.1 814.211C11083.5 788.543 11034.4 772.693 10993.7 772.411C10564.8 769.445 10135.9 770.494 9706.98 770.778C9680.8 770.795 9654.63 773.706 9620.21 775.763C9651.29 5581.58 9682.33 10381.3 9713.37 15181C9743.37 15162.8 9756.94 15141.2 9769.73 15119.1C10700.3 13513.3 11631 11907.6 12559.6 10300.6C12586.3 10254.3 12601.4 10194.8 12601.7 10141.3C12604.5 9511.38 12603.5 8881.41 12603.5 8233.53ZM3662.4 7176.01C3440.05 6783.21 3217.68 6390.43 2995.35 5997.61C2798.05 5649.01 2601.26 5300.12 2402.8 4952.17C2384.1 4919.38 2375 4858.54 2309.36 4916.39C1868.07 5305.31 1423.75 5690.87 983.128 6080.53C952.397 6107.7 927.081 6159.06 926.982 6199.24C924.034 7405.52 924.124 8611.8 926.684 9818.08C926.765 9856.42 948.196 9904.44 976.038 9931.49C1261.92 10209.2 1550.89 10483.9 1839.57 10758.8C2823.81 11696.1 3808.28 12633.2 4792.65 13570.4C5614.17 14352.6 6435.71 15134.7 7257.15 15916.9C7685.55 16324.9 8113.6 16733.2 8542.11 17141C8693.43 17285 8845.65 17428.1 9012.16 17585.5C9012.16 17548.4 9012.16 17528.8 9012.16 17509.2C9012.16 17186.7 9013.72 16864.2 9010.36 16541.8C9009.89 16497.1 8993.14 16448.2 8970.48 16408.7C7204.19 13334.5 5436.55 10261 3662.4 7176.01Z" fill="white" stroke="white" stroke-width="2"/>
</svg>
